<mxfile host="app.diagrams.net" agent="Mozilla/5.0 (Windows NT 10.0; Win64; x64) AppleWebKit/537.36 (KHTML, like Gecko) Chrome/135.0.0.0 Safari/537.36" version="26.2.12">
  <diagram name="P치gina-1" id="OXsQhTWeLlRT7e1Gy97I">
    <mxGraphModel dx="2017" dy="658" grid="1" gridSize="10" guides="1" tooltips="1" connect="1" arrows="1" fold="1" page="1" pageScale="1" pageWidth="827" pageHeight="1169" math="0" shadow="0">
      <root>
        <mxCell id="0" />
        <mxCell id="1" parent="0" />
        <mxCell id="KV95UrAWEebhoTeZX99Z-1" value="Usuario Registrado" style="shape=umlActor;verticalLabelPosition=bottom;verticalAlign=top;html=1;" vertex="1" parent="1">
          <mxGeometry x="-520" y="440" width="30" height="60" as="geometry" />
        </mxCell>
        <mxCell id="KV95UrAWEebhoTeZX99Z-5" value="Sistema de Gmail" style="shape=umlFrame;whiteSpace=wrap;html=1;pointerEvents=0;recursiveResize=0;container=1;collapsible=0;width=160;" vertex="1" parent="1">
          <mxGeometry x="-440" y="40" width="710" height="960" as="geometry" />
        </mxCell>
        <mxCell id="KV95UrAWEebhoTeZX99Z-13" value="Iniciar Sesion" style="ellipse;whiteSpace=wrap;html=1;" vertex="1" parent="KV95UrAWEebhoTeZX99Z-5">
          <mxGeometry x="40" y="235" width="140" height="70" as="geometry" />
        </mxCell>
        <mxCell id="KV95UrAWEebhoTeZX99Z-17" value="Cerrar Sesion" style="ellipse;whiteSpace=wrap;html=1;" vertex="1" parent="KV95UrAWEebhoTeZX99Z-5">
          <mxGeometry x="40" y="315" width="140" height="70" as="geometry" />
        </mxCell>
        <mxCell id="KV95UrAWEebhoTeZX99Z-18" value="Enviar Correos" style="ellipse;whiteSpace=wrap;html=1;" vertex="1" parent="KV95UrAWEebhoTeZX99Z-5">
          <mxGeometry x="40" y="395" width="140" height="70" as="geometry" />
        </mxCell>
        <mxCell id="KV95UrAWEebhoTeZX99Z-19" value="Recibir Correos" style="ellipse;whiteSpace=wrap;html=1;" vertex="1" parent="KV95UrAWEebhoTeZX99Z-5">
          <mxGeometry x="40" y="475" width="140" height="70" as="geometry" />
        </mxCell>
        <mxCell id="KV95UrAWEebhoTeZX99Z-20" value="Eliminar Correos" style="ellipse;whiteSpace=wrap;html=1;" vertex="1" parent="KV95UrAWEebhoTeZX99Z-5">
          <mxGeometry x="40" y="555" width="140" height="70" as="geometry" />
        </mxCell>
        <mxCell id="KV95UrAWEebhoTeZX99Z-23" value="Revisar Registros / Historial" style="ellipse;whiteSpace=wrap;html=1;" vertex="1" parent="KV95UrAWEebhoTeZX99Z-5">
          <mxGeometry x="40" y="640" width="140" height="70" as="geometry" />
        </mxCell>
        <mxCell id="KV95UrAWEebhoTeZX99Z-24" value="Crear / Eliminar Usuario" style="ellipse;whiteSpace=wrap;html=1;" vertex="1" parent="KV95UrAWEebhoTeZX99Z-5">
          <mxGeometry x="40" y="720" width="140" height="70" as="geometry" />
        </mxCell>
        <mxCell id="KV95UrAWEebhoTeZX99Z-25" value="Administrar Sistema" style="ellipse;whiteSpace=wrap;html=1;" vertex="1" parent="KV95UrAWEebhoTeZX99Z-5">
          <mxGeometry x="40" y="800" width="140" height="70" as="geometry" />
        </mxCell>
        <mxCell id="KV95UrAWEebhoTeZX99Z-26" value="Actualizar Sistema" style="ellipse;whiteSpace=wrap;html=1;" vertex="1" parent="KV95UrAWEebhoTeZX99Z-5">
          <mxGeometry x="40" y="880" width="140" height="70" as="geometry" />
        </mxCell>
        <mxCell id="KV95UrAWEebhoTeZX99Z-27" value="Gestionar trafico de Correos" style="ellipse;whiteSpace=wrap;html=1;" vertex="1" parent="KV95UrAWEebhoTeZX99Z-5">
          <mxGeometry x="390" y="395" width="140" height="70" as="geometry" />
        </mxCell>
        <mxCell id="KV95UrAWEebhoTeZX99Z-56" value="Registrarse" style="ellipse;whiteSpace=wrap;html=1;" vertex="1" parent="KV95UrAWEebhoTeZX99Z-5">
          <mxGeometry x="40" y="95" width="140" height="70" as="geometry" />
        </mxCell>
        <mxCell id="KV95UrAWEebhoTeZX99Z-58" value="Verificar Contrase침a" style="ellipse;whiteSpace=wrap;html=1;" vertex="1" parent="KV95UrAWEebhoTeZX99Z-5">
          <mxGeometry x="260" y="180" width="140" height="70" as="geometry" />
        </mxCell>
        <mxCell id="KV95UrAWEebhoTeZX99Z-59" value="Crear Contrase침a Nueva" style="ellipse;whiteSpace=wrap;html=1;" vertex="1" parent="KV95UrAWEebhoTeZX99Z-5">
          <mxGeometry x="470" y="50" width="140" height="70" as="geometry" />
        </mxCell>
        <mxCell id="KV95UrAWEebhoTeZX99Z-60" value="Ingresar Datos Personales" style="ellipse;whiteSpace=wrap;html=1;" vertex="1" parent="KV95UrAWEebhoTeZX99Z-5">
          <mxGeometry x="250" y="50" width="140" height="70" as="geometry" />
        </mxCell>
        <mxCell id="KV95UrAWEebhoTeZX99Z-62" value="" style="endArrow=open;html=1;rounded=0;align=center;verticalAlign=middle;dashed=1;endFill=0;labelBackgroundColor=none;exitX=1;exitY=0.5;exitDx=0;exitDy=0;entryX=0;entryY=0.5;entryDx=0;entryDy=0;" edge="1" parent="KV95UrAWEebhoTeZX99Z-5" source="KV95UrAWEebhoTeZX99Z-56" target="KV95UrAWEebhoTeZX99Z-60">
          <mxGeometry relative="1" as="geometry">
            <mxPoint x="490" y="310" as="sourcePoint" />
            <mxPoint x="650" y="310" as="targetPoint" />
          </mxGeometry>
        </mxCell>
        <mxCell id="KV95UrAWEebhoTeZX99Z-64" value="&lt;span style=&quot;font-size: 11px;&quot;&gt;&amp;lt;&amp;lt;include&amp;gt;&amp;gt;&lt;/span&gt;" style="text;html=1;align=center;verticalAlign=middle;resizable=0;points=[];autosize=1;strokeColor=none;fillColor=none;rotation=-30;" vertex="1" parent="KV95UrAWEebhoTeZX99Z-5">
          <mxGeometry x="170" y="80" width="80" height="30" as="geometry" />
        </mxCell>
        <mxCell id="KV95UrAWEebhoTeZX99Z-69" value="&amp;lt;&amp;lt;include&amp;gt;&amp;gt;" style="html=1;verticalAlign=bottom;labelBackgroundColor=none;endArrow=open;endFill=0;dashed=1;rounded=0;exitX=1;exitY=0.5;exitDx=0;exitDy=0;entryX=0;entryY=0.5;entryDx=0;entryDy=0;" edge="1" parent="KV95UrAWEebhoTeZX99Z-5" source="KV95UrAWEebhoTeZX99Z-60" target="KV95UrAWEebhoTeZX99Z-59">
          <mxGeometry width="160" relative="1" as="geometry">
            <mxPoint x="300" y="190" as="sourcePoint" />
            <mxPoint x="460" y="190" as="targetPoint" />
          </mxGeometry>
        </mxCell>
        <mxCell id="KV95UrAWEebhoTeZX99Z-70" value="" style="html=1;verticalAlign=bottom;labelBackgroundColor=none;endArrow=open;endFill=0;dashed=1;rounded=0;exitX=0.5;exitY=1;exitDx=0;exitDy=0;entryX=0.5;entryY=0;entryDx=0;entryDy=0;" edge="1" parent="KV95UrAWEebhoTeZX99Z-5" source="KV95UrAWEebhoTeZX99Z-59" target="KV95UrAWEebhoTeZX99Z-58">
          <mxGeometry width="160" relative="1" as="geometry">
            <mxPoint x="400" y="95" as="sourcePoint" />
            <mxPoint x="480" y="95" as="targetPoint" />
          </mxGeometry>
        </mxCell>
        <mxCell id="KV95UrAWEebhoTeZX99Z-72" value="" style="endArrow=open;html=1;rounded=0;align=center;verticalAlign=middle;dashed=1;endFill=0;labelBackgroundColor=none;exitX=1;exitY=0.5;exitDx=0;exitDy=0;entryX=0;entryY=0.5;entryDx=0;entryDy=0;" edge="1" parent="KV95UrAWEebhoTeZX99Z-5" target="KV95UrAWEebhoTeZX99Z-58">
          <mxGeometry relative="1" as="geometry">
            <mxPoint x="180" y="270" as="sourcePoint" />
            <mxPoint x="250" y="225" as="targetPoint" />
          </mxGeometry>
        </mxCell>
        <mxCell id="KV95UrAWEebhoTeZX99Z-73" value="&lt;span style=&quot;font-size: 11px;&quot;&gt;&amp;lt;&amp;lt;include&amp;gt;&amp;gt;&lt;/span&gt;" style="text;html=1;align=center;verticalAlign=middle;resizable=0;points=[];autosize=1;strokeColor=none;fillColor=none;rotation=-30;" vertex="1" parent="KV95UrAWEebhoTeZX99Z-5">
          <mxGeometry x="170" y="220" width="80" height="30" as="geometry" />
        </mxCell>
        <mxCell id="KV95UrAWEebhoTeZX99Z-74" value="&lt;span style=&quot;color: rgba(0, 0, 0, 0); font-family: monospace; font-size: 0px; text-align: start;&quot;&gt;%3CmxGraphModel%3E%3Croot%3E%3CmxCell%20id%3D%220%22%2F%3E%3CmxCell%20id%3D%221%22%20parent%3D%220%22%2F%3E%3CmxCell%20id%3D%222%22%20value%3D%22%22%20style%3D%22endArrow%3Dopen%3Bhtml%3D1%3Brounded%3D0%3Balign%3Dcenter%3BverticalAlign%3Dmiddle%3Bdashed%3D1%3BendFill%3D0%3BlabelBackgroundColor%3Dnone%3BexitX%3D1%3BexitY%3D0.5%3BexitDx%3D0%3BexitDy%3D0%3BentryX%3D0%3BentryY%3D0.5%3BentryDx%3D0%3BentryDy%3D0%3B%22%20edge%3D%221%22%20parent%3D%221%22%3E%3CmxGeometry%20relative%3D%221%22%20as%3D%22geometry%22%3E%3CmxPoint%20x%3D%22-260%22%20y%3D%22170%22%20as%3D%22sourcePoint%22%2F%3E%3CmxPoint%20x%3D%22-190%22%20y%3D%22125%22%20as%3D%22targetPoint%22%2F%3E%3C%2FmxGeometry%3E%3C%2FmxCell%3E%3CmxCell%20id%3D%223%22%20value%3D%22%26lt%3Bspan%20style%3D%26quot%3Bfont-size%3A%2011px%3B%26quot%3B%26gt%3B%26amp%3Blt%3B%26amp%3Blt%3Binclude%26amp%3Bgt%3B%26amp%3Bgt%3B%26lt%3B%2Fspan%26gt%3B%22%20style%3D%22text%3Bhtml%3D1%3Balign%3Dcenter%3BverticalAlign%3Dmiddle%3Bresizable%3D0%3Bpoints%3D%5B%5D%3Bautosize%3D1%3BstrokeColor%3Dnone%3BfillColor%3Dnone%3Brotation%3D-30%3B%22%20vertex%3D%221%22%20parent%3D%221%22%3E%3CmxGeometry%20x%3D%22-270%22%20y%3D%22110%22%20width%3D%2280%22%20height%3D%2230%22%20as%3D%22geometry%22%2F%3E%3C%2FmxCell%3E%3C%2Froot%3E%3C%2FmxGraphModel%3E&lt;/span&gt;&lt;span style=&quot;font-size: 11px;&quot;&gt;&amp;lt;&amp;lt;include&amp;gt;&amp;gt;&lt;/span&gt;" style="text;html=1;align=center;verticalAlign=middle;resizable=0;points=[];autosize=1;strokeColor=none;fillColor=none;rotation=-15;" vertex="1" parent="KV95UrAWEebhoTeZX99Z-5">
          <mxGeometry x="390" y="130" width="80" height="30" as="geometry" />
        </mxCell>
        <mxCell id="KV95UrAWEebhoTeZX99Z-75" value="Contrae침a Equivocada" style="ellipse;whiteSpace=wrap;html=1;" vertex="1" parent="KV95UrAWEebhoTeZX99Z-5">
          <mxGeometry x="280" y="280" width="140" height="70" as="geometry" />
        </mxCell>
        <mxCell id="KV95UrAWEebhoTeZX99Z-76" value="" style="html=1;verticalAlign=bottom;labelBackgroundColor=none;endArrow=open;endFill=0;dashed=1;rounded=0;exitX=0;exitY=0.5;exitDx=0;exitDy=0;entryX=1;entryY=0.5;entryDx=0;entryDy=0;" edge="1" parent="KV95UrAWEebhoTeZX99Z-5" source="KV95UrAWEebhoTeZX99Z-75" target="KV95UrAWEebhoTeZX99Z-13">
          <mxGeometry width="160" relative="1" as="geometry">
            <mxPoint x="440" y="350" as="sourcePoint" />
            <mxPoint x="230" y="410" as="targetPoint" />
          </mxGeometry>
        </mxCell>
        <mxCell id="KV95UrAWEebhoTeZX99Z-77" value="&lt;span style=&quot;color: rgba(0, 0, 0, 0); font-family: monospace; font-size: 0px; text-align: start;&quot;&gt;%3CmxGraphModel%3E%3Croot%3E%3CmxCell%20id%3D%220%22%2F%3E%3CmxCell%20id%3D%221%22%20parent%3D%220%22%2F%3E%3CmxCell%20id%3D%222%22%20value%3D%22%22%20style%3D%22endArrow%3Dopen%3Bhtml%3D1%3Brounded%3D0%3Balign%3Dcenter%3BverticalAlign%3Dmiddle%3Bdashed%3D1%3BendFill%3D0%3BlabelBackgroundColor%3Dnone%3BexitX%3D1%3BexitY%3D0.5%3BexitDx%3D0%3BexitDy%3D0%3BentryX%3D0%3BentryY%3D0.5%3BentryDx%3D0%3BentryDy%3D0%3B%22%20edge%3D%221%22%20parent%3D%221%22%3E%3CmxGeometry%20relative%3D%221%22%20as%3D%22geometry%22%3E%3CmxPoint%20x%3D%22-260%22%20y%3D%22170%22%20as%3D%22sourcePoint%22%2F%3E%3CmxPoint%20x%3D%22-190%22%20y%3D%22125%22%20as%3D%22targetPoint%22%2F%3E%3C%2FmxGeometry%3E%3C%2FmxCell%3E%3CmxCell%20id%3D%223%22%20value%3D%22%26lt%3Bspan%20style%3D%26quot%3Bfont-size%3A%2011px%3B%26quot%3B%26gt%3B%26amp%3Blt%3B%26amp%3Blt%3Binclude%26amp%3Bgt%3B%26amp%3Bgt%3B%26lt%3B%2Fspan%26gt%3B%22%20style%3D%22text%3Bhtml%3D1%3Balign%3Dcenter%3BverticalAlign%3Dmiddle%3Bresizable%3D0%3Bpoints%3D%5B%5D%3Bautosize%3D1%3BstrokeColor%3Dnone%3BfillColor%3Dnone%3Brotation%3D-30%3B%22%20vertex%3D%221%22%20parent%3D%221%22%3E%3CmxGeometry%20x%3D%22-270%22%20y%3D%22110%22%20width%3D%2280%22%20height%3D%2230%22%20as%3D%22geometry%22%2F%3E%3C%2FmxCell%3E%3C%2Froot%3E%3C%2FmxGraphModel%3E&lt;/span&gt;&lt;span style=&quot;font-size: 11px;&quot;&gt;&amp;lt;&amp;lt;extend&amp;gt;&amp;gt;&lt;/span&gt;" style="text;html=1;align=center;verticalAlign=middle;resizable=0;points=[];autosize=1;strokeColor=none;fillColor=none;rotation=30;" vertex="1" parent="KV95UrAWEebhoTeZX99Z-5">
          <mxGeometry x="200" y="270" width="80" height="30" as="geometry" />
        </mxCell>
        <mxCell id="KV95UrAWEebhoTeZX99Z-78" value="" style="html=1;verticalAlign=bottom;labelBackgroundColor=none;endArrow=open;endFill=0;dashed=1;rounded=0;exitX=1;exitY=0.5;exitDx=0;exitDy=0;entryX=0.5;entryY=1;entryDx=0;entryDy=0;" edge="1" parent="KV95UrAWEebhoTeZX99Z-5" source="KV95UrAWEebhoTeZX99Z-75" target="KV95UrAWEebhoTeZX99Z-59">
          <mxGeometry width="160" relative="1" as="geometry">
            <mxPoint x="510" y="270" as="sourcePoint" />
            <mxPoint x="410" y="225" as="targetPoint" />
          </mxGeometry>
        </mxCell>
        <mxCell id="KV95UrAWEebhoTeZX99Z-79" value="&lt;span style=&quot;color: rgba(0, 0, 0, 0); font-family: monospace; font-size: 0px; text-align: start;&quot;&gt;%3CmxGraphModel%3E%3Croot%3E%3CmxCell%20id%3D%220%22%2F%3E%3CmxCell%20id%3D%221%22%20parent%3D%220%22%2F%3E%3CmxCell%20id%3D%222%22%20value%3D%22%22%20style%3D%22endArrow%3Dopen%3Bhtml%3D1%3Brounded%3D0%3Balign%3Dcenter%3BverticalAlign%3Dmiddle%3Bdashed%3D1%3BendFill%3D0%3BlabelBackgroundColor%3Dnone%3BexitX%3D1%3BexitY%3D0.5%3BexitDx%3D0%3BexitDy%3D0%3BentryX%3D0%3BentryY%3D0.5%3BentryDx%3D0%3BentryDy%3D0%3B%22%20edge%3D%221%22%20parent%3D%221%22%3E%3CmxGeometry%20relative%3D%221%22%20as%3D%22geometry%22%3E%3CmxPoint%20x%3D%22-260%22%20y%3D%22170%22%20as%3D%22sourcePoint%22%2F%3E%3CmxPoint%20x%3D%22-190%22%20y%3D%22125%22%20as%3D%22targetPoint%22%2F%3E%3C%2FmxGeometry%3E%3C%2FmxCell%3E%3CmxCell%20id%3D%223%22%20value%3D%22%26lt%3Bspan%20style%3D%26quot%3Bfont-size%3A%2011px%3B%26quot%3B%26gt%3B%26amp%3Blt%3B%26amp%3Blt%3Binclude%26amp%3Bgt%3B%26amp%3Bgt%3B%26lt%3B%2Fspan%26gt%3B%22%20style%3D%22text%3Bhtml%3D1%3Balign%3Dcenter%3BverticalAlign%3Dmiddle%3Bresizable%3D0%3Bpoints%3D%5B%5D%3Bautosize%3D1%3BstrokeColor%3Dnone%3BfillColor%3Dnone%3Brotation%3D-30%3B%22%20vertex%3D%221%22%20parent%3D%221%22%3E%3CmxGeometry%20x%3D%22-270%22%20y%3D%22110%22%20width%3D%2280%22%20height%3D%2230%22%20as%3D%22geometry%22%2F%3E%3C%2FmxCell%3E%3C%2Froot%3E%3C%2FmxGraphModel%3E&lt;/span&gt;&lt;span style=&quot;font-size: 11px;&quot;&gt;&amp;lt;&amp;lt;extend&amp;gt;&amp;gt;&lt;/span&gt;" style="text;html=1;align=center;verticalAlign=middle;resizable=0;points=[];autosize=1;strokeColor=none;fillColor=none;rotation=-60;" vertex="1" parent="KV95UrAWEebhoTeZX99Z-5">
          <mxGeometry x="410" y="220" width="80" height="30" as="geometry" />
        </mxCell>
        <mxCell id="KV95UrAWEebhoTeZX99Z-80" value="&amp;lt;&amp;lt;include&amp;gt;&amp;gt;" style="html=1;verticalAlign=bottom;labelBackgroundColor=none;endArrow=open;endFill=0;dashed=1;rounded=0;exitX=1;exitY=0.5;exitDx=0;exitDy=0;entryX=0;entryY=0.5;entryDx=0;entryDy=0;" edge="1" parent="KV95UrAWEebhoTeZX99Z-5" source="KV95UrAWEebhoTeZX99Z-18" target="KV95UrAWEebhoTeZX99Z-27">
          <mxGeometry width="160" relative="1" as="geometry">
            <mxPoint x="290" y="440" as="sourcePoint" />
            <mxPoint x="450" y="440" as="targetPoint" />
          </mxGeometry>
        </mxCell>
        <mxCell id="KV95UrAWEebhoTeZX99Z-81" value="&amp;lt;&amp;lt;include&amp;gt;&amp;gt;" style="html=1;verticalAlign=bottom;labelBackgroundColor=none;endArrow=open;endFill=0;dashed=1;rounded=0;exitX=1;exitY=0.5;exitDx=0;exitDy=0;entryX=0;entryY=0.5;entryDx=0;entryDy=0;" edge="1" parent="KV95UrAWEebhoTeZX99Z-5" source="KV95UrAWEebhoTeZX99Z-19" target="KV95UrAWEebhoTeZX99Z-27">
          <mxGeometry width="160" relative="1" as="geometry">
            <mxPoint x="290" y="440" as="sourcePoint" />
            <mxPoint x="450" y="440" as="targetPoint" />
          </mxGeometry>
        </mxCell>
        <mxCell id="KV95UrAWEebhoTeZX99Z-82" value="Gestion de Correos almacenados" style="ellipse;whiteSpace=wrap;html=1;" vertex="1" parent="KV95UrAWEebhoTeZX99Z-5">
          <mxGeometry x="380" y="485" width="140" height="70" as="geometry" />
        </mxCell>
        <mxCell id="KV95UrAWEebhoTeZX99Z-83" value="&amp;lt;&amp;lt;include&amp;gt;&amp;gt;" style="html=1;verticalAlign=bottom;labelBackgroundColor=none;endArrow=open;endFill=0;dashed=1;rounded=0;exitX=1;exitY=0.5;exitDx=0;exitDy=0;entryX=0;entryY=0.5;entryDx=0;entryDy=0;" edge="1" parent="KV95UrAWEebhoTeZX99Z-5" target="KV95UrAWEebhoTeZX99Z-82">
          <mxGeometry width="160" relative="1" as="geometry">
            <mxPoint x="180" y="590" as="sourcePoint" />
            <mxPoint x="390" y="510" as="targetPoint" />
          </mxGeometry>
        </mxCell>
        <mxCell id="KV95UrAWEebhoTeZX99Z-85" value="Gestion de Usuarios almacenados" style="ellipse;whiteSpace=wrap;html=1;" vertex="1" parent="KV95UrAWEebhoTeZX99Z-5">
          <mxGeometry x="420" y="580" width="140" height="70" as="geometry" />
        </mxCell>
        <mxCell id="KV95UrAWEebhoTeZX99Z-91" value="&amp;lt;&amp;lt;include&amp;gt;&amp;gt;" style="html=1;verticalAlign=bottom;labelBackgroundColor=none;endArrow=open;endFill=0;dashed=1;rounded=0;exitX=1.018;exitY=0.445;exitDx=0;exitDy=0;exitPerimeter=0;entryX=0;entryY=1;entryDx=0;entryDy=0;" edge="1" parent="KV95UrAWEebhoTeZX99Z-5" source="KV95UrAWEebhoTeZX99Z-23" target="KV95UrAWEebhoTeZX99Z-82">
          <mxGeometry width="160" relative="1" as="geometry">
            <mxPoint x="290" y="710" as="sourcePoint" />
            <mxPoint x="450" y="710" as="targetPoint" />
          </mxGeometry>
        </mxCell>
        <mxCell id="KV95UrAWEebhoTeZX99Z-92" value="&amp;lt;&amp;lt;include&amp;gt;&amp;gt;" style="html=1;verticalAlign=bottom;labelBackgroundColor=none;endArrow=open;endFill=0;dashed=1;rounded=0;exitX=1;exitY=0.5;exitDx=0;exitDy=0;entryX=0;entryY=0.5;entryDx=0;entryDy=0;" edge="1" parent="KV95UrAWEebhoTeZX99Z-5" source="KV95UrAWEebhoTeZX99Z-24" target="KV95UrAWEebhoTeZX99Z-85">
          <mxGeometry width="160" relative="1" as="geometry">
            <mxPoint x="290" y="710" as="sourcePoint" />
            <mxPoint x="450" y="710" as="targetPoint" />
          </mxGeometry>
        </mxCell>
        <mxCell id="KV95UrAWEebhoTeZX99Z-93" value="Gestion de Versiones del Sistema" style="ellipse;whiteSpace=wrap;html=1;" vertex="1" parent="KV95UrAWEebhoTeZX99Z-5">
          <mxGeometry x="440" y="690" width="140" height="70" as="geometry" />
        </mxCell>
        <mxCell id="KV95UrAWEebhoTeZX99Z-95" value="&amp;lt;&amp;lt;include&amp;gt;&amp;gt;" style="html=1;verticalAlign=bottom;labelBackgroundColor=none;endArrow=open;endFill=0;dashed=1;rounded=0;exitX=1;exitY=0.5;exitDx=0;exitDy=0;entryX=0;entryY=0.5;entryDx=0;entryDy=0;" edge="1" parent="KV95UrAWEebhoTeZX99Z-5" source="KV95UrAWEebhoTeZX99Z-25" target="KV95UrAWEebhoTeZX99Z-93">
          <mxGeometry width="160" relative="1" as="geometry">
            <mxPoint x="370" y="700" as="sourcePoint" />
            <mxPoint x="290" y="790" as="targetPoint" />
          </mxGeometry>
        </mxCell>
        <mxCell id="KV95UrAWEebhoTeZX99Z-96" value="&amp;lt;&amp;lt;include&amp;gt;&amp;gt;" style="html=1;verticalAlign=bottom;labelBackgroundColor=none;endArrow=open;endFill=0;dashed=1;rounded=0;exitX=1;exitY=0.5;exitDx=0;exitDy=0;entryX=0;entryY=0.5;entryDx=0;entryDy=0;" edge="1" parent="KV95UrAWEebhoTeZX99Z-5" source="KV95UrAWEebhoTeZX99Z-26" target="KV95UrAWEebhoTeZX99Z-97">
          <mxGeometry width="160" relative="1" as="geometry">
            <mxPoint x="190" y="845" as="sourcePoint" />
            <mxPoint x="381" y="810" as="targetPoint" />
          </mxGeometry>
        </mxCell>
        <mxCell id="KV95UrAWEebhoTeZX99Z-97" value="Verificacion de Version del sistema desactualizada" style="ellipse;whiteSpace=wrap;html=1;" vertex="1" parent="KV95UrAWEebhoTeZX99Z-5">
          <mxGeometry x="350" y="810" width="140" height="70" as="geometry" />
        </mxCell>
        <mxCell id="KV95UrAWEebhoTeZX99Z-98" value="&amp;lt;&amp;lt;include&amp;gt;&amp;gt;" style="html=1;verticalAlign=bottom;labelBackgroundColor=none;endArrow=open;endFill=0;dashed=1;rounded=0;exitX=0.5;exitY=0;exitDx=0;exitDy=0;entryX=0.5;entryY=1;entryDx=0;entryDy=0;" edge="1" parent="KV95UrAWEebhoTeZX99Z-5" source="KV95UrAWEebhoTeZX99Z-97" target="KV95UrAWEebhoTeZX99Z-93">
          <mxGeometry width="160" relative="1" as="geometry">
            <mxPoint x="370" y="700" as="sourcePoint" />
            <mxPoint x="530" y="700" as="targetPoint" />
          </mxGeometry>
        </mxCell>
        <mxCell id="KV95UrAWEebhoTeZX99Z-99" value="Sistema Ya Actualizado" style="ellipse;whiteSpace=wrap;html=1;" vertex="1" parent="KV95UrAWEebhoTeZX99Z-5">
          <mxGeometry x="480" y="880" width="140" height="70" as="geometry" />
        </mxCell>
        <mxCell id="KV95UrAWEebhoTeZX99Z-100" value="&amp;lt;&amp;lt;extend&amp;gt;&amp;gt;" style="html=1;verticalAlign=bottom;labelBackgroundColor=none;endArrow=open;endFill=0;dashed=1;rounded=0;exitX=0;exitY=0.5;exitDx=0;exitDy=0;entryX=1;entryY=0.5;entryDx=0;entryDy=0;" edge="1" parent="KV95UrAWEebhoTeZX99Z-5" source="KV95UrAWEebhoTeZX99Z-99" target="KV95UrAWEebhoTeZX99Z-26">
          <mxGeometry width="160" relative="1" as="geometry">
            <mxPoint x="370" y="700" as="sourcePoint" />
            <mxPoint x="530" y="700" as="targetPoint" />
          </mxGeometry>
        </mxCell>
        <mxCell id="KV95UrAWEebhoTeZX99Z-9" value="Administrador" style="shape=umlActor;verticalLabelPosition=bottom;verticalAlign=top;html=1;" vertex="1" parent="1">
          <mxGeometry x="-520" y="780" width="30" height="60" as="geometry" />
        </mxCell>
        <mxCell id="KV95UrAWEebhoTeZX99Z-14" value="Servidor de Correo" style="shape=umlActor;verticalLabelPosition=bottom;verticalAlign=top;html=1;" vertex="1" parent="1">
          <mxGeometry x="320" y="530" width="30" height="60" as="geometry" />
        </mxCell>
        <mxCell id="KV95UrAWEebhoTeZX99Z-37" value="" style="endArrow=none;startArrow=none;endFill=0;startFill=0;endSize=8;html=1;verticalAlign=bottom;labelBackgroundColor=none;strokeWidth=1;rounded=0;exitX=0.5;exitY=0.5;exitDx=0;exitDy=0;exitPerimeter=0;entryX=0;entryY=0.5;entryDx=0;entryDy=0;" edge="1" parent="1" source="KV95UrAWEebhoTeZX99Z-1" target="KV95UrAWEebhoTeZX99Z-13">
          <mxGeometry width="160" relative="1" as="geometry">
            <mxPoint x="70" y="200" as="sourcePoint" />
            <mxPoint x="230" y="200" as="targetPoint" />
          </mxGeometry>
        </mxCell>
        <mxCell id="KV95UrAWEebhoTeZX99Z-39" value="" style="endArrow=none;startArrow=none;endFill=0;startFill=0;endSize=8;html=1;verticalAlign=bottom;labelBackgroundColor=none;strokeWidth=1;rounded=0;entryX=0;entryY=0.5;entryDx=0;entryDy=0;exitX=0.5;exitY=0.5;exitDx=0;exitDy=0;exitPerimeter=0;" edge="1" parent="1" source="KV95UrAWEebhoTeZX99Z-1" target="KV95UrAWEebhoTeZX99Z-17">
          <mxGeometry width="160" relative="1" as="geometry">
            <mxPoint x="140" y="225" as="sourcePoint" />
            <mxPoint x="240" y="180" as="targetPoint" />
          </mxGeometry>
        </mxCell>
        <mxCell id="KV95UrAWEebhoTeZX99Z-40" value="" style="endArrow=none;startArrow=none;endFill=0;startFill=0;endSize=8;html=1;verticalAlign=bottom;labelBackgroundColor=none;strokeWidth=1;rounded=0;entryX=0;entryY=0.5;entryDx=0;entryDy=0;exitX=0.5;exitY=0.5;exitDx=0;exitDy=0;exitPerimeter=0;" edge="1" parent="1" source="KV95UrAWEebhoTeZX99Z-1" target="KV95UrAWEebhoTeZX99Z-18">
          <mxGeometry width="160" relative="1" as="geometry">
            <mxPoint x="110" y="350" as="sourcePoint" />
            <mxPoint x="205" y="255" as="targetPoint" />
          </mxGeometry>
        </mxCell>
        <mxCell id="KV95UrAWEebhoTeZX99Z-41" value="" style="endArrow=none;startArrow=none;endFill=0;startFill=0;endSize=8;html=1;verticalAlign=bottom;labelBackgroundColor=none;strokeWidth=1;rounded=0;entryX=0;entryY=0.5;entryDx=0;entryDy=0;exitX=0.5;exitY=0.5;exitDx=0;exitDy=0;exitPerimeter=0;" edge="1" parent="1" source="KV95UrAWEebhoTeZX99Z-1" target="KV95UrAWEebhoTeZX99Z-19">
          <mxGeometry width="160" relative="1" as="geometry">
            <mxPoint x="-165" y="340" as="sourcePoint" />
            <mxPoint x="-70" y="325" as="targetPoint" />
          </mxGeometry>
        </mxCell>
        <mxCell id="KV95UrAWEebhoTeZX99Z-42" value="" style="endArrow=none;startArrow=none;endFill=0;startFill=0;endSize=8;html=1;verticalAlign=bottom;labelBackgroundColor=none;strokeWidth=1;rounded=0;entryX=0;entryY=0.5;entryDx=0;entryDy=0;exitX=0.5;exitY=0.5;exitDx=0;exitDy=0;exitPerimeter=0;" edge="1" parent="1" source="KV95UrAWEebhoTeZX99Z-1" target="KV95UrAWEebhoTeZX99Z-20">
          <mxGeometry width="160" relative="1" as="geometry">
            <mxPoint x="-165" y="340" as="sourcePoint" />
            <mxPoint x="-70" y="405" as="targetPoint" />
          </mxGeometry>
        </mxCell>
        <mxCell id="KV95UrAWEebhoTeZX99Z-45" value="" style="endArrow=none;startArrow=none;endFill=0;startFill=0;endSize=8;html=1;verticalAlign=bottom;labelBackgroundColor=none;strokeWidth=1;rounded=0;entryX=0;entryY=0.5;entryDx=0;entryDy=0;exitX=0.5;exitY=0.5;exitDx=0;exitDy=0;exitPerimeter=0;" edge="1" parent="1" source="KV95UrAWEebhoTeZX99Z-9" target="KV95UrAWEebhoTeZX99Z-23">
          <mxGeometry width="160" relative="1" as="geometry">
            <mxPoint x="-165" y="420" as="sourcePoint" />
            <mxPoint x="-70" y="645" as="targetPoint" />
          </mxGeometry>
        </mxCell>
        <mxCell id="KV95UrAWEebhoTeZX99Z-46" value="" style="endArrow=none;startArrow=none;endFill=0;startFill=0;endSize=8;html=1;verticalAlign=bottom;labelBackgroundColor=none;strokeWidth=1;rounded=0;entryX=0;entryY=0.5;entryDx=0;entryDy=0;exitX=0.5;exitY=0.5;exitDx=0;exitDy=0;exitPerimeter=0;" edge="1" parent="1" source="KV95UrAWEebhoTeZX99Z-9" target="KV95UrAWEebhoTeZX99Z-24">
          <mxGeometry width="160" relative="1" as="geometry">
            <mxPoint x="-165" y="740" as="sourcePoint" />
            <mxPoint x="-70" y="725" as="targetPoint" />
          </mxGeometry>
        </mxCell>
        <mxCell id="KV95UrAWEebhoTeZX99Z-47" value="" style="endArrow=none;startArrow=none;endFill=0;startFill=0;endSize=8;html=1;verticalAlign=bottom;labelBackgroundColor=none;strokeWidth=1;rounded=0;entryX=0;entryY=0.5;entryDx=0;entryDy=0;exitX=0.5;exitY=0.5;exitDx=0;exitDy=0;exitPerimeter=0;" edge="1" parent="1" source="KV95UrAWEebhoTeZX99Z-9" target="KV95UrAWEebhoTeZX99Z-25">
          <mxGeometry width="160" relative="1" as="geometry">
            <mxPoint x="-165" y="740" as="sourcePoint" />
            <mxPoint x="-70" y="805" as="targetPoint" />
          </mxGeometry>
        </mxCell>
        <mxCell id="KV95UrAWEebhoTeZX99Z-48" value="" style="endArrow=none;startArrow=none;endFill=0;startFill=0;endSize=8;html=1;verticalAlign=bottom;labelBackgroundColor=none;strokeWidth=1;rounded=0;entryX=0;entryY=0.5;entryDx=0;entryDy=0;exitX=0.5;exitY=0.5;exitDx=0;exitDy=0;exitPerimeter=0;" edge="1" parent="1" source="KV95UrAWEebhoTeZX99Z-9" target="KV95UrAWEebhoTeZX99Z-26">
          <mxGeometry width="160" relative="1" as="geometry">
            <mxPoint x="-165" y="740" as="sourcePoint" />
            <mxPoint x="-70" y="885" as="targetPoint" />
          </mxGeometry>
        </mxCell>
        <mxCell id="KV95UrAWEebhoTeZX99Z-51" value="" style="endArrow=none;startArrow=none;endFill=0;startFill=0;endSize=8;html=1;verticalAlign=bottom;labelBackgroundColor=none;strokeWidth=1;rounded=0;entryX=1;entryY=0.5;entryDx=0;entryDy=0;exitX=0.5;exitY=0.5;exitDx=0;exitDy=0;exitPerimeter=0;" edge="1" parent="1" source="KV95UrAWEebhoTeZX99Z-14" target="KV95UrAWEebhoTeZX99Z-27">
          <mxGeometry width="160" relative="1" as="geometry">
            <mxPoint x="665" y="420" as="sourcePoint" />
            <mxPoint x="530" y="485" as="targetPoint" />
          </mxGeometry>
        </mxCell>
        <mxCell id="KV95UrAWEebhoTeZX99Z-55" value="Usuario Nuevo" style="shape=umlActor;verticalLabelPosition=bottom;verticalAlign=top;html=1;" vertex="1" parent="1">
          <mxGeometry x="-520" y="140" width="30" height="60" as="geometry" />
        </mxCell>
        <mxCell id="KV95UrAWEebhoTeZX99Z-57" value="" style="endArrow=none;startArrow=none;endFill=0;startFill=0;endSize=8;html=1;verticalAlign=bottom;labelBackgroundColor=none;strokeWidth=1;rounded=0;exitX=0.5;exitY=0.5;exitDx=0;exitDy=0;exitPerimeter=0;entryX=0;entryY=0.5;entryDx=0;entryDy=0;" edge="1" parent="1" source="KV95UrAWEebhoTeZX99Z-55" target="KV95UrAWEebhoTeZX99Z-56">
          <mxGeometry width="160" relative="1" as="geometry">
            <mxPoint x="-495" y="480" as="sourcePoint" />
            <mxPoint x="-390" y="320" as="targetPoint" />
          </mxGeometry>
        </mxCell>
        <mxCell id="KV95UrAWEebhoTeZX99Z-84" value="" style="endArrow=none;startArrow=none;endFill=0;startFill=0;endSize=8;html=1;verticalAlign=bottom;labelBackgroundColor=none;strokeWidth=1;rounded=0;entryX=1;entryY=0.5;entryDx=0;entryDy=0;exitX=0.5;exitY=0.5;exitDx=0;exitDy=0;exitPerimeter=0;" edge="1" parent="1" source="KV95UrAWEebhoTeZX99Z-14" target="KV95UrAWEebhoTeZX99Z-82">
          <mxGeometry width="160" relative="1" as="geometry">
            <mxPoint x="345" y="480" as="sourcePoint" />
            <mxPoint x="100" y="480" as="targetPoint" />
          </mxGeometry>
        </mxCell>
        <mxCell id="KV95UrAWEebhoTeZX99Z-86" value="" style="endArrow=none;startArrow=none;endFill=0;startFill=0;endSize=8;html=1;verticalAlign=bottom;labelBackgroundColor=none;strokeWidth=1;rounded=0;entryX=1;entryY=0.5;entryDx=0;entryDy=0;exitX=0.5;exitY=0.5;exitDx=0;exitDy=0;exitPerimeter=0;" edge="1" parent="1" source="KV95UrAWEebhoTeZX99Z-14" target="KV95UrAWEebhoTeZX99Z-85">
          <mxGeometry width="160" relative="1" as="geometry">
            <mxPoint x="345" y="480" as="sourcePoint" />
            <mxPoint x="90" y="570" as="targetPoint" />
          </mxGeometry>
        </mxCell>
        <mxCell id="KV95UrAWEebhoTeZX99Z-94" value="" style="endArrow=none;startArrow=none;endFill=0;startFill=0;endSize=8;html=1;verticalAlign=bottom;labelBackgroundColor=none;strokeWidth=1;rounded=0;entryX=1;entryY=0.5;entryDx=0;entryDy=0;exitX=0.5;exitY=0.5;exitDx=0;exitDy=0;exitPerimeter=0;" edge="1" parent="1" source="KV95UrAWEebhoTeZX99Z-14" target="KV95UrAWEebhoTeZX99Z-93">
          <mxGeometry width="160" relative="1" as="geometry">
            <mxPoint x="345" y="480" as="sourcePoint" />
            <mxPoint x="130" y="665" as="targetPoint" />
          </mxGeometry>
        </mxCell>
      </root>
    </mxGraphModel>
  </diagram>
</mxfile>
